# xmcd
#
# Track frame offsets: 
#        182
#        13940
#        26242
#        40035
#        50930
#        62877
#        76365
#        86967
#        96982
#        108047
#        119172
#        131305
#        150812
#        164847
#        174635
#        186727
#        201137
#        213285
#
# Disc length: 3008 seconds
#
# Revision: 6
# Processed by: cddbd v1.5.2PL0 Copyright (c) Steve Scherf et al.
# Submitted via: ExactAudioCopyFreeDBPlugin 1.0
#
DISCID=080bbe12
DTITLE=Taylor, Koko - Wang Dang Doodle - The Blues Collection 29
DYEAR=1995
DGENRE=Blues
TTITLE0=What kind of man is this?
TTITLE1=Don't mess with the Messer
TTITLE2=I got what it takes
TTITLE3=Whatever I am, you made me
TTITLE4=I'm a little mixed up
TTITLE5=Wang dang doodle
TTITLE6=Blues heaven
TTITLE7=(I got) all you need
TTITLE8=Good advice
TTITLE9=Egg or the hen
TTITLE10=Just love me
TTITLE11=Insane asylum
TTITLE12=Separate or integrate
TTITLE13=I don't care who knows
TTITLE14=Yes, it's good for you
TTITLE15=Twenty-nine ways
TTITLE16=Nitty gritty
TTITLE17=I love a lover like you
EXTD=
EXTT0=
EXTT1=
EXTT2=
EXTT3=
EXTT4=
EXTT5=
EXTT6=
EXTT7=
EXTT8=
EXTT9=
EXTT10=
EXTT11=
EXTT12=
EXTT13=
EXTT14=
EXTT15=
EXTT16=
EXTT17=
PLAYORDER=
